<?xml version="1.0" encoding="UTF-8" standalone="no"?>
<svg width="595px" height="842px" viewBox="0 0 595 842" version="1.1" xmlns="http://www.w3.org/2000/svg" xmlns:xlink="http://www.w3.org/1999/xlink">
    <!-- Generator: Sketch 3.8.3 (29802) - http://www.bohemiancoding.com/sketch -->
    <title>generic_icons</title>
    <desc>Created with Sketch.</desc>
    <defs></defs>
    <g id="postman_icons" stroke="none" stroke-width="1" fill="none" fill-rule="evenodd">
        <g id="generic_icons" fill="#FFFFFF">
            <path d="M36.6061706,50 L36.6061706,32.0027036 L36.8841361,32.0027036 L47.6708599,32.0027036 C48.0300846,31.9790404 48.381991,32.111581 48.6357586,32.366119 C48.8895262,32.620657 49.020292,32.9722541 48.9943079,33.3301696 L48.9943079,48.7511067 C49.0283817,49.0894158 48.9082442,49.4250956 48.6670459,49.6655188 C48.4258477,49.905942 48.0890857,50.0256935 47.7496859,49.9917292 L36.6061706,49.9917292 L36.6061706,50 Z M45.6089361,36.5144339 L38.8713825,36.5144339 L38.8713825,37.6144525 L45.6089361,37.6144525 L45.6089361,36.5144339 Z M38.8506389,40.9972164 L45.6089361,40.9972164 L45.6089361,39.888927 L38.8506389,39.888927 L38.8506389,40.9972164 Z M34.2455376,32.0027036 L34.2455376,49.9710521 C33.8088134,49.9929636 33.3712599,49.9929636 32.9345358,49.9710521 C32.4066059,49.9047693 32.0093607,49.4593046 32.005218,48.9289293 L32.005218,48.6808048 L32.005218,33.2640031 C31.9727004,32.9260697 32.0933432,32.591326 32.3341688,32.3512743 C32.5749943,32.1112227 32.9108171,31.9909675 33.24984,32.0233806 L34.2455376,32.0233806 L34.2455376,32.0027036 Z" id="book"></path>
            <path d="M123.840161,32 L131.147022,32 L131.147022,36.086577 L134.800452,36.086577 C134.879137,36.0847038 134.951235,36.1297824 134.983202,36.2008384 C135.015168,36.2718945 135.000723,36.3549726 134.946589,36.4114178 C132.548856,38.7427853 130.155183,41.0728159 127.765569,43.4015098 C127.550422,43.6140599 127.44082,43.6140599 127.221614,43.4015098 C124.832,41.0728159 122.445092,38.7414485 120.060891,36.4074074 C120.007982,36.3545938 119.991419,36.2759994 120.018595,36.2067132 C120.045771,36.137427 120.111616,36.0903801 120.186731,36.086577 L123.840161,36.086577 L123.840161,32 Z M120,46.4685579 C120,46.1346052 120.26006,45.863883 120.605913,45.863883 L134.37721,45.863883 C134.711847,45.863883 134.983123,46.1312666 134.983123,46.4685579 L134.983123,48.3953251 C134.983123,48.7292778 134.723063,49 134.37721,49 L120.605913,49 C120.271277,49 120,48.7326164 120,48.3953251 L120,46.4685579 Z" id="download"></path>
            <path d="M211.642036,37.4211118 C211.766356,37.705888 211.960149,38.1544103 212.091781,38.3751118 L220.263976,38.3751118 L220.691782,38.3751118 C220.789499,38.3825801 220.88624,38.3992704 220.980643,38.4249476 L220.980643,37.5136641 C220.980643,36.7941195 220.381481,36.2108134 219.642377,36.2108134 L211.02775,36.2108134 C211.261062,36.5999066 211.466319,37.0043135 211.642036,37.4211118 Z M212.570778,48.9830216 L204.925114,48.9830216 C204.343736,48.9830216 203.996372,48.7445216 204.000029,48.071738 C204.021967,44.5974696 204.000029,40.0873281 204.000029,36.6166194 C204.000029,36.1787761 204.128005,36.0328284 204.585063,36.0079104 C204.903175,35.9901119 205.221287,36.0079104 205.535743,36.0079104 L208.281747,36.0079104 C208.541183,35.9940714 208.794637,36.0870861 208.980131,36.2642089 C209.462784,36.716291 210.464655,39.5960893 210.950965,40.041052 C211.079051,40.1670625 211.255271,40.2354271 211.437274,40.2297161 L220.26032,40.2297161 L220.625966,40.2297161 C220.827907,40.2297161 220.991612,40.3890894 220.991612,40.5856863 C220.995391,40.6425821 220.995391,40.6996561 220.991612,40.7565519 L220.991612,48.2675216 L220.991612,48.3885514 C221.022741,48.5575678 220.966109,48.7306438 220.840298,48.8509895 C220.714486,48.9713351 220.535737,49.0234152 220.362701,48.990141 L212.570778,48.990141 L212.570778,48.9830216 Z" id="folder"></path>
            <path d="M309,44.8278689 C308.766962,45.557377 308.546409,46.2786885 308.296725,46.9877049 C308.204128,47.073257 308.076939,47.1124958 307.95133,47.0942623 C307.224474,47.0040984 306.500392,46.9002732 305.779084,46.7827869 C305.552977,46.7123742 305.30777,46.8082861 305.192329,47.0122951 C304.935876,47.4078337 304.65805,47.7895303 304.360051,48.1557377 C304.163944,48.3488108 304.135928,48.6523134 304.293468,48.8770492 C304.6888,49.5778689 305.038357,50.2868852 305.408721,51.0409836 L303.427899,52.4795082 C302.820337,51.897541 302.208612,51.3319672 301.621856,50.7459016 C301.473676,50.5674844 301.220208,50.5131433 301.010132,50.6147541 C300.510765,50.795082 299.994753,50.9385246 299.495386,51.1229508 C299.370417,51.1792288 299.277377,51.2873825 299.241542,51.4180328 C299.083409,52.2581967 298.946083,53.1065574 298.792111,54 L296.499186,54 C296.404006,53.9660863 296.332228,53.8877124 296.307762,53.7909836 C296.157952,53.0286885 296.019239,52.2636612 295.891623,51.4959016 C295.885431,51.3233183 295.759746,51.1774936 295.587842,51.1434426 C295.055184,50.9918033 294.526687,50.8196721 293.998191,50.6434426 C293.838989,50.570016 293.649412,50.6141463 293.540438,50.75 C292.949521,51.3647541 292.346119,51.9795082 291.726072,52.5942623 L289.68283,51.1557377 C290.044871,50.4262295 290.381943,49.7008197 290.764791,49 C290.93947,48.7666805 290.914705,48.4426441 290.706532,48.2377049 C290.386105,47.8606557 290.098969,47.454918 289.811833,47.0532787 C289.736886,46.9009913 289.557618,46.8286046 289.395694,46.8852459 C288.642482,47.0163934 287.880948,47.1188525 287.123575,47.2418033 C287.027622,47.2749131 286.921566,47.2630245 286.835623,47.2095245 C286.749679,47.1560245 286.693271,47.0667787 286.682468,46.9672131 C286.516012,46.397541 286.320427,45.8360656 286.116519,45.2745902 C286.064075,45.1939581 286.053989,45.0934746 286.089388,45.0042904 C286.124787,44.9151063 286.201394,44.8479984 286.295459,44.8237705 C286.973765,44.4959016 287.627103,44.1270492 288.301248,43.7909836 C288.489843,43.7244251 288.603516,43.5349699 288.571739,43.3401639 C288.552319,42.8374317 288.552319,42.3346995 288.571739,41.8319672 C288.607429,41.6050858 288.474819,41.3851243 288.255473,41.307377 C287.502262,40.954918 286.769857,40.5655738 286,40.1721311 C286.233038,39.442623 286.453591,38.7213115 286.703275,38.0163934 C286.795872,37.9308414 286.923061,37.8916026 287.04867,37.9098361 C287.776913,38 288.500995,38.0983607 289.220916,38.2172131 C289.444823,38.2878014 289.688262,38.193613 289.80351,37.9918033 C290.065005,37.5857392 290.35128,37.195678 290.660756,36.8237705 C290.846913,36.6332966 290.864569,36.3377041 290.70237,36.1270492 C290.319522,35.4180328 289.965804,34.7131148 289.595441,33.9590164 L291.576262,32.5204918 C292.187986,33.1065574 292.795549,33.6680328 293.386466,34.2540984 C293.533784,34.4338968 293.788316,34.488466 293.998191,34.3852459 C294.497557,34.204918 295.01357,34.0614754 295.512936,33.8770492 C295.638269,33.8212442 295.731479,33.7128926 295.766781,33.5819672 C295.924914,32.7418033 296.06224,31.8934426 296.216211,31 L298.509137,31 C298.603898,31.0345252 298.675434,31.1126353 298.700561,31.2090164 C298.850371,31.9713115 298.991858,32.7336066 299.1167,33.5040984 C299.12099,33.6782335 299.2471,33.8262525 299.420481,33.8606557 C299.953139,34.0122951 300.481636,34.1844262 301.010132,34.3606557 C301.168079,34.4334765 301.356158,34.3892931 301.463724,34.2540984 C302.054641,33.6393443 302.658042,33.0245902 303.273928,32.4098361 L305.31717,33.8483607 C304.955129,34.5819672 304.609734,35.3032787 304.23937,36.0081967 C304.054735,36.2321788 304.070873,36.5571283 304.276823,36.7622951 C304.613895,37.1721311 305.109101,37.3483607 305.221458,37.9918033 C305.304128,38.0846597 305.424905,38.1358523 305.550208,38.1311475 C306.320065,38.0286885 307.089922,37.9098361 307.855618,37.7827869 C307.95062,37.7405837 308.060208,37.744632 308.151734,37.7937255 C308.243259,37.8428191 308.306159,37.9312922 308.321694,38.0327869 C308.488149,38.6147541 308.687896,39.1885246 308.895965,39.7540984 C308.946431,39.8256093 308.958219,39.9168985 308.927535,39.9985735 C308.89685,40.0802485 308.827568,40.1419958 308.741994,40.1639344 C308.059526,40.5040984 307.389542,40.8729508 306.707074,41.2131148 C306.520133,41.2811848 306.408447,41.4702384 306.440745,41.6639344 C306.440745,42.1680328 306.461552,42.6721311 306.440745,43.1721311 C306.405055,43.3990126 306.537665,43.618974 306.757011,43.6967213 C307.489416,44.045082 308.234304,44.4385246 309,44.8278689 L309,44.8278689 L309,44.8278689 Z M301.39298,42.5 C301.396348,40.9493724 300.450499,39.5495844 298.996839,38.9538851 C297.54318,38.3581859 295.868271,38.6840064 294.753756,39.7792937 C293.63924,40.874581 293.304823,42.5234195 293.906569,43.9563342 C294.508315,45.3892488 295.927602,46.3237669 297.502081,46.3237705 C299.643014,46.3126131 301.377066,44.6084776 301.39298,42.5 L301.39298,42.5 L301.39298,42.5 Z" id="gear"></path>
            <path d="M381.856222,31 L392,39.5816078 L389.196378,39.5816078 L372.103747,39.5816078 C372.060727,39.5818315 372.02208,39.5555747 372.006765,39.5157184 C371.991451,39.475862 372.00268,39.4307679 372.034946,39.4025579 L381.856222,31 Z M374.524665,42.2375152 L374.524665,51.863581 C374.524665,51.9389231 374.586271,52 374.662266,52 L379.590104,52 C379.666099,52 379.727705,51.9389231 379.727705,51.863581 L379.727705,47.4171742 C379.727705,47.3418321 379.789311,47.2807552 379.865306,47.2807552 L384.083639,47.2807552 C384.159634,47.2807552 384.22124,47.3418321 384.22124,47.4171742 L384.22124,51.8593179 C384.22124,51.93466 384.282846,51.9957369 384.358841,51.9957369 L389.058777,51.9957369 C389.134772,51.9957369 389.196378,51.93466 389.196378,51.8593179 L389.196378,42.2375152 C389.196378,42.1621731 389.134772,42.1010962 389.058777,42.1010962 L374.662266,42.1010962 C374.586271,42.1010962 374.524665,42.1621731 374.524665,42.2375152 Z" id="home"></path>
            <path d="M457,48.4543909 L457,36.545609 C456.999985,36.133371 457.163902,35.7382096 457.455311,35.4479742 C457.74672,35.1577389 458.141469,34.9964839 458.5518,35.0000582 L475.448193,35.0000582 C476.297862,35.0000582 476.986654,35.6920249 476.986654,36.545609 L476.986654,39.7394496 L475.652728,39.7394496 L473.136055,39.7394496 C471.718144,39.7505628 470.543095,40.8469908 470.42754,42.2667417 C470.311985,43.6864926 471.294132,44.9601191 472.691413,45.2024805 C472.940035,45.2401676 473.191547,45.2551186 473.442858,45.2471496 L476.999993,45.2471496 L476.999993,48.449924 C477.001197,48.8629357 476.837804,49.2592502 476.546265,49.5504545 C476.254726,49.8416587 475.859297,50.0035246 475.448193,49.9999418 L458.5518,49.9999418 C458.141469,50.0035161 457.74672,49.842261 457.455311,49.5520257 C457.163902,49.2617904 456.999985,48.8666289 457,48.4543909 Z M473.77634,41.3654048 C474.38229,41.370339 474.869764,41.8673847 474.865678,42.4761341 C474.861593,43.0848835 474.367492,43.5752807 473.76153,43.5720061 C473.155568,43.5687317 472.666748,43.073023 472.669181,42.4642647 C472.674074,41.8541931 473.169052,41.362925 473.77634,41.3654048 Z" id="wallet"></path>
            <path d="M543.413097,48.3705081 L541.964374,49.7938601 C541.810565,49.943101 541.580945,49.9869157 541.381722,49.9050381 C541.182499,49.8231606 541.052516,49.6315543 541.051895,49.4188452 L541.051895,43.7211759 C541.061234,43.4360098 541.298605,43.2096435 541.588138,43.209792 L547.253295,43.209792 C547.459771,43.2229081 547.64017,43.3519104 547.716854,43.5412804 C547.793537,43.7306504 547.752822,43.9465999 547.612232,44.0961908 L546.068369,45.6090349 C547.651153,47.3733095 549.528007,48.3321543 551.841639,48.1659546 C555.059102,47.9400933 557.065692,46.1672957 558.107908,43.1927459 L562,43.1927459 C561.290774,46.7085104 559.405272,49.3975375 556.135914,50.8635048 C551.348641,53.0581941 547.097611,51.992811 543.413097,48.3705081 Z M544.727759,39.8005658 C544.838715,39.790027 544.933292,39.7167995 544.969934,39.6130584 C545.779353,36.9107885 548.218093,34.9964005 551.07187,34.8230956 C552.779705,34.7000853 554.469827,35.2313339 555.789951,36.306109 C556.222405,36.6385085 556.564044,37.0390926 556.961903,37.4268921 L555.396417,39.0121823 C555.266348,39.1437 555.227121,39.3383852 555.296333,39.5088948 C555.365546,39.6794044 555.530203,39.7937241 555.716433,39.8005658 L561.485379,39.8005658 C561.745713,39.8005658 561.956755,39.5925989 561.956755,39.3360587 L561.956755,33.5531588 C561.956521,33.3665575 561.842996,33.1982078 561.66851,33.1257127 C561.494024,33.0532176 561.292453,33.0906517 561.156713,33.2207593 L559.625824,34.6867265 C556.395387,31.3371618 552.49897,30.1354096 548.005766,31.6397306 C544.113674,32.9437596 541.851936,35.8032481 541,39.7707351 L544.727759,39.8005658 Z" id="sync"></path>
            <path d="M34.3181632,125.954969 C34.0201797,124.794113 34.5638214,123.584978 35.6491324,122.994708 C36.7677997,122.314278 37.9272944,122.40813 39.0663754,123.057276 L39.2174363,122.807003 C40.4422546,120.81264 42.279482,119.850653 44.7087049,120.018805 C47.5985734,120.250444 49.8217357,122.563371 49.8243625,125.341017 C49.8078033,125.420125 49.8259989,125.502272 49.8746665,125.568125 C49.9233341,125.633977 49.9981752,125.677719 50.0815744,125.689053 C51.9024709,126.197421 52.9109046,128.035363 52.9843937,129.482254 C53.0727459,130.510973 52.7840036,131.537023 52.1678481,132.383857 C51.4468143,133.415813 50.226379,134.024614 48.9302452,133.998901 L35.220446,133.998901 C33.3062787,134.041982 31.6139644,132.814936 31.1377184,131.03864 C30.6502831,129.22987 31.486209,127.332291 33.1790822,126.404678 C33.5478813,126.230613 33.9284245,126.080375 34.3181632,125.954969 L34.3181632,125.954969 L34.3181632,125.954969 Z" id="cloud"></path>
            <path d="M118.078342,131.012235 C116.520202,131.217594 115.265183,132.407595 114.959672,133.96934 L114.00129,138.924381 C113.997853,138.941304 114.001351,138.958915 114.010979,138.973173 C114.020607,138.987432 114.03554,138.997115 114.052351,139 L114.07199,139 L119.013157,138.355248 C121.014301,138.093678 122.427283,136.237844 122.169141,134.210127 C121.910999,132.18241 120.079486,130.750665 118.078342,131.012235 Z M136.849278,120.847435 C137.669875,119.016706 138.061083,117.018343 137.992266,115.008844 C136.039906,114.935711 134.096974,115.316931 132.312674,116.123231 L136.849278,120.847435 Z M135.88304,122.861291 L130.348776,117.07842 C128.575764,118.158822 126.950205,119.470116 125.513659,120.978773 C124.602234,121.926015 123.766889,122.945467 123.015581,124.027417 L122.772058,123.995578 L122.599235,123.971698 C122.430339,123.971698 122.261444,123.943838 122.088621,123.939858 L121.530874,123.939858 L121.318773,123.939858 C121.174754,123.939858 121.032044,123.953125 120.890644,123.979658 L120.721748,124.003538 C120.567255,124.027417 120.414071,124.055277 120.262196,124.087117 L120.069734,124.162736 L119.700521,124.262235 L119.527698,124.313974 C119.358803,124.369693 119.189908,124.429393 119.021013,124.493072 L118.903179,124.544811 C118.767015,124.60053 118.636089,124.661556 118.510399,124.727889 L118.34936,124.807488 C118.215815,124.876474 118.084888,124.950766 117.95658,125.030365 L117.854457,125.090065 C117.693418,125.189564 117.536306,125.297022 117.383122,125.408461 L117.265288,125.5 C117.144836,125.590212 117.027002,125.684404 116.911786,125.782577 L116.786097,125.894015 C116.640769,126.025354 116.49544,126.160672 116.357967,126.29201 C116.220494,126.423349 116.024105,126.658166 115.874848,126.849204 C115.823787,126.912883 115.780581,126.984522 115.72952,127.048202 C115.635253,127.17556 115.537058,127.302918 115.450646,127.446197 C115.19827,127.836771 114.981353,128.249722 114.80256,128.679982 C115.205322,128.494876 115.623253,128.345726 116.051599,128.234227 C116.224422,128.190448 116.397245,128.150648 116.570068,128.118809 L116.703613,128.094929 L117.096393,128.03921 L117.253505,128.03921 C117.397524,128.025943 117.542852,128.016657 117.68949,128.01135 L117.787685,128.01135 L118.329721,128.01135 L118.427916,128.01135 C118.574553,128.01135 118.721191,128.024617 118.867829,128.05115 L119.013157,128.05115 C119.157176,128.072376 119.299886,128.096256 119.441287,128.122789 L119.54341,128.142689 C119.718851,128.179835 119.894293,128.223614 120.069734,128.274027 L120.164001,128.305867 C120.302783,128.348319 120.440256,128.394752 120.57642,128.445165 L120.635337,128.477005 C120.533214,128.747641 120.438947,129.018278 120.352536,129.272995 C121.171018,129.684872 121.922145,130.221804 122.579596,130.864976 L122.599235,130.928656 C123.248034,131.570224 123.796385,132.308383 124.225342,133.11763 C124.488504,133.022111 124.751667,132.918632 125.010901,132.807193 C125.785928,134.721628 125.776033,136.870101 124.983407,138.777123 C128.204767,137.305881 130.011961,133.789926 129.355043,130.271963 C130.401445,129.480914 131.383893,128.60653 132.293035,127.657134 C133.683155,126.217137 134.889264,124.605911 135.88304,122.861291 Z M132.139851,123.561763 C131.617454,126.34773 128.125643,126.498968 127.351868,123.888119 C127.258292,123.553762 127.258292,123.199628 127.351868,122.865271 C128.054943,120.226562 131.558537,120.266362 132.147706,123.060289 C132.177917,123.226322 132.175246,123.396785 132.139851,123.561763 Z" id="rocket"></path>
            <path d="M212.503939,125.811024 C216.090077,125.811023 218.997825,128.715248 219,132.299213 L219,134 L206,134 L206,132.299213 C206.001044,130.576711 206.686991,128.925231 207.90683,127.708346 C209.126669,126.491461 210.780395,125.808934 212.503939,125.811024 Z M212.503939,123.385827 C214.268405,123.385827 215.698788,121.956311 215.698788,120.192913 C215.698788,118.429516 214.268405,117 212.503939,117 C210.739473,117 209.309091,118.429516 209.309091,120.192913 C209.309091,121.956311 210.739473,123.385827 212.503939,123.385827 Z" id="profile"></path>
            <path d="M304.831222,127.772273 L290.455933,134.964989 C290.359043,135.014758 290.242314,135.011265 290.148763,134.955798 C290.055213,134.900331 289.998689,134.801099 290.000023,134.694674 L290.000023,120.305326 C289.998689,120.198901 290.055213,120.099669 290.148763,120.044202 C290.242314,119.988735 290.359043,119.985242 290.455933,120.035011 L304.831222,127.235562 C304.934843,127.287218 305,127.390816 305,127.503918 C305,127.617019 304.934843,127.720618 304.831222,127.772273 L304.831222,127.772273 L304.831222,127.772273 Z" id="play"></path>
            <path d="M389.997282,117.559773 L389.997282,117.310028 C387.233248,119.187422 384.564956,119.351048 382.013221,117 C379.428183,119.35966 376.759892,119.17881 374.000021,117.305722 L374.000021,117.551161 L374.000021,127.063003 C373.999246,127.358452 374.020119,127.653537 374.062461,127.945722 C374.329777,129.665681 375.125232,131.250945 376.331133,132.466969 C377.707707,133.886495 379.351159,134.998828 381.159867,135.735184 C381.992407,136.088272 381.992407,136.088272 382.824947,135.735184 C384.837806,134.941716 386.639736,133.665147 388.082439,132.010538 C389.28114,130.686739 389.962025,128.949734 389.993119,127.136204 C390.005607,123.936884 389.997282,120.737564 389.997282,117.559773 L389.997282,117.559773 L389.997282,117.559773 Z M385.83458,127.282606 C385.83458,127.520417 385.64821,127.713201 385.41831,127.713201 L383.55342,127.713201 C383.32352,127.713201 383.13715,127.905985 383.13715,128.143796 L383.13715,130.047025 C383.13715,130.284837 382.950779,130.47762 382.72088,130.47762 L381.243121,130.47762 C381.013221,130.47762 380.826851,130.284837 380.826851,130.047025 L380.826851,128.105042 C380.826851,127.867231 380.64048,127.674448 380.410581,127.674448 L378.554016,127.674448 C378.324116,127.674448 378.137746,127.481664 378.137746,127.243853 L378.137746,125.693711 C378.137746,125.4559 378.324116,125.263116 378.554016,125.263116 L380.423069,125.263116 C380.652968,125.263116 380.839339,125.070332 380.839339,124.832521 L380.839339,122.933598 C380.839339,122.695787 381.025709,122.503003 381.255609,122.503003 L382.754181,122.503003 C382.984081,122.503003 383.170452,122.695787 383.170452,122.933598 L383.170452,124.879887 C383.170452,125.117698 383.356822,125.310482 383.586722,125.310482 L385.455774,125.310482 C385.685674,125.310482 385.872045,125.503265 385.872045,125.741076 L385.872045,127.291218 L385.83458,127.282606 L385.83458,127.282606 Z" id="plan"></path>
            <path d="M463.6675,123.368129 C465.476339,123.368129 466.942692,121.942575 466.942692,120.184065 C466.942692,118.425554 465.476339,117 463.6675,117 C461.858661,117 460.392308,118.425554 460.392308,120.184065 C460.392308,121.942575 461.858661,123.368129 463.6675,123.368129 Z M462.165192,133.379677 C462.165192,130.384065 463.118269,127.718245 465.367692,125.998614 C464.812705,125.857122 464.241253,125.785863 463.6675,125.786605 C461.899912,125.784521 460.203986,126.465695 458.953355,127.680057 C457.702723,128.894418 456.999999,130.542331 457,132.260739 L457,133.956813 L462.165192,133.956813 L462.165192,133.379677 Z M471.3325,125.829792 C473.100088,125.827708 474.796014,126.508882 476.046645,127.723244 C477.297277,128.937605 478.000001,130.585518 478,132.303926 L478,134 L464.673077,134 L464.673077,132.303926 C464.673077,128.728361 467.654602,125.829792 471.3325,125.829792 Z M471.3325,123.411316 C473.141339,123.411316 474.607692,121.985762 474.607692,120.227252 C474.607692,118.468741 473.141339,117.043187 471.3325,117.043187 C469.523661,117.043187 468.057308,118.468741 468.057308,120.227252 C468.057308,121.985762 469.523661,123.411316 471.3325,123.411316 Z" id="people"></path>
            <path d="M542,120 L560,120 L551,128 L542,120 Z M541,121 L541,132 L547.5,126.5 L541,121 Z M561,132 L561,121 L554.5,126.5 L561,132 Z M542,133 L548.5,127.469922 L551,130 L553.5,127.469922 L560,133 L542,133 Z" id="envelope"></path>
            <path d="M44.3633904,204.003552 L44.3633904,204 L44.8322813,204 L45.3011722,204 L45.6438233,204.067481 C45.8722633,204.11129 46.0796573,204.168701 46.2660054,204.239734 C46.4523715,204.310766 46.6327142,204.393643 46.8070334,204.488346 C46.9813706,204.58305 47.139477,204.679547 47.2813526,204.777802 C47.4220198,204.874886 47.5482597,204.977882 47.6600721,205.086792 C47.7706583,205.196892 47.9431921,205.225305 48.1776375,205.172031 C48.412083,205.118757 48.6645627,205.044759 48.9350766,204.950055 C49.2055906,204.855352 49.4731109,204.748804 49.7376014,204.630411 C50.00211,204.512018 50.1632281,204.436848 50.2209378,204.404883 C50.2774391,204.371747 50.3075023,204.353989 50.3111091,204.351609 L50.3146979,204.346282 L50.3327322,204.337403 L50.3507665,204.328524 L50.3688007,204.319645 L50.386835,204.310766 L50.3904418,204.305438 L50.3958521,204.301887 L50.4012804,204.298335 L50.4048693,204.293008 L50.4229035,204.28768 L50.4409378,204.284129 L50.437349,204.310766 L50.4319206,204.337403 L50.4229035,204.36404 L50.4138864,204.390677 L50.4048693,204.408435 L50.3958521,204.426193 L50.386835,204.45283 C50.3808296,204.470588 50.3748242,204.49426 50.3688007,204.523862 C50.3627953,204.553465 50.3056808,204.67184 50.1974752,204.879023 C50.0892696,205.086206 49.9540126,205.296337 49.7917042,205.509434 C49.6293959,205.722531 49.4839315,205.883525 49.3552931,205.992453 C49.2254463,206.102553 49.139477,206.179498 49.097385,206.223307 C49.0553111,206.268289 49.00422,206.309718 48.9440938,206.347614 L48.8539225,206.406215 L48.8358882,206.415094 L48.8178539,206.423973 L48.8142651,206.429301 L48.8088368,206.432852 L48.8034265,206.436404 L48.7998197,206.441731 L48.7817854,206.45061 L48.7637511,206.459489 L48.7601623,206.464817 L48.754734,206.468368 L48.7493237,206.47192 L48.7457169,206.477248 L48.742128,206.482575 L48.7366997,206.486127 L48.7312894,206.489678 L48.7276826,206.495006 L48.7727683,206.495006 L48.8178539,206.495006 L49.3228133,206.388457 C49.659459,206.317425 49.981064,206.2316 50.2876465,206.130966 C50.594229,206.030331 50.7565374,205.977057 50.7745717,205.971143 C50.792606,205.96523 50.8106402,205.959299 50.8286745,205.953385 L50.8557259,205.944506 L50.8737601,205.935627 L50.8917944,205.926748 L50.9098287,205.917869 L50.9278629,205.90899 L50.9639315,205.903663 L51,205.900111 L51,205.917869 L51,205.935627 L50.9909829,205.939179 L50.9819657,205.944506 L50.9783769,205.949834 L50.9729486,205.953385 L50.9675383,205.956937 L50.9639315,205.962264 L50.9603427,205.967592 L50.9549143,205.971143 L50.9495041,205.974695 L50.9458972,205.980022 L50.9423084,205.98535 L50.9368801,205.988901 L50.9278629,206.006659 L50.9188458,206.024417 L50.9134355,206.027969 C50.911037,206.031521 50.8346979,206.132138 50.6844004,206.329856 C50.5341208,206.528746 50.4529666,206.629363 50.4409378,206.631743 C50.428927,206.635294 50.412083,206.653052 50.3904418,206.685017 C50.370009,206.718153 50.2425609,206.850166 50.0081154,207.081021 C49.77367,207.311876 49.5440577,207.517265 49.3192245,207.697225 C49.0932011,207.878357 48.978972,208.100919 48.9765735,208.364928 C48.9729666,208.627747 48.9591344,208.92491 48.9350766,209.256382 C48.911037,209.587871 48.8659513,209.94598 48.7998197,210.330744 C48.733706,210.715507 48.6315059,211.150579 48.4932372,211.63596 C48.3549865,212.121341 48.1866546,212.594895 47.9882777,213.056604 C47.7899008,213.518313 47.5825068,213.932661 47.3660956,214.299667 C47.1496844,214.666673 46.9513075,214.977438 46.7709648,215.231964 C46.5906222,215.486491 46.4072858,215.726224 46.2209197,215.951165 C46.0345717,216.176107 45.798936,216.429461 45.5139946,216.71121 C45.2278449,216.991787 45.07156,217.145696 45.0451037,217.172919 C45.0174572,217.19897 44.8996393,217.296053 44.6916141,217.464151 C44.4848332,217.633438 44.2623986,217.802726 44.0243463,217.972031 C43.7875023,218.140147 43.5698828,218.280435 43.3715059,218.392897 C43.1731289,218.505358 42.9338864,218.633802 42.6537421,218.778246 C42.3748242,218.923862 42.0730388,219.058824 41.748422,219.18313 C41.4238052,219.307436 41.0811542,219.422863 40.7204689,219.529412 C40.3597836,219.63596 40.0111271,219.718837 39.6744815,219.778024 C39.3378539,219.837212 38.9561226,219.887538 38.5293057,219.928968 L37.8890893,219.991121 L37.8890893,219.996448 L37.8890893,220 L37.3029757,220 L36.716862,220 L36.716862,219.996448 L36.716862,219.991121 L36.5635708,219.982242 C36.4613886,219.976329 36.3772227,219.970397 36.3110911,219.964484 C36.2449775,219.95857 35.9954914,219.926002 35.5626691,219.866815 C35.1298467,219.807627 34.7902074,219.748422 34.5437331,219.689234 C34.2972768,219.630047 33.9305681,219.517567 33.4436429,219.351831 C32.9567178,219.186095 32.5401262,219.018566 32.1938683,218.849279 C31.8488188,218.681163 31.6324076,218.574615 31.5446348,218.529634 C31.4580703,218.485825 31.3606853,218.431378 31.2524797,218.36626 L31.0901713,218.26859 L31.0865825,218.263263 L31.0811542,218.259711 L31.0757439,218.25616 L31.0721371,218.250832 L31.0541028,218.241953 L31.0360685,218.233074 L31.0324797,218.227747 L31.0270514,218.224195 L31.0216411,218.220644 L31.0180343,218.215316 L31.0144454,218.209989 L31.0090171,218.206437 L31.0036069,218.206437 L31,218.206437 L31,218.188679 L31,218.170921 L31.0180343,218.174473 L31.0360685,218.1798 L31.1172227,218.188679 C31.1713255,218.194593 31.3186114,218.203472 31.5590622,218.215316 C31.7995311,218.227161 32.0550045,218.227161 32.3255185,218.215316 C32.5960325,218.203472 32.8725699,218.176835 33.1550947,218.135405 C33.4376375,218.093976 33.7712714,218.022943 34.1559964,217.922309 C34.5407394,217.821674 34.894211,217.702109 35.2164292,217.563596 C35.5374391,217.423911 35.7658611,217.319725 35.9017313,217.251054 C36.0363751,217.183574 36.2419657,217.058078 36.5184851,216.874584 L36.9332732,216.599334 L36.9368801,216.594007 L36.9422904,216.590455 L36.9477187,216.586903 L36.9513075,216.581576 L36.9549143,216.576249 L36.9603246,216.572697 L36.9657529,216.569145 L36.9693417,216.563818 L36.987376,216.558491 L37.0054103,216.554939 L37.0090171,216.537181 L37.0144274,216.519423 L37.0198557,216.515871 L37.0234445,216.510544 L36.8791704,216.501665 C36.7829937,216.495751 36.6898106,216.48982 36.5996393,216.483907 C36.509468,216.477993 36.3682056,216.451356 36.1758341,216.403996 C35.9834806,216.356635 35.7760866,216.285603 35.5536519,216.190899 C35.3312353,216.096195 35.1148242,215.983716 34.9044184,215.853496 C34.6940307,215.723276 34.5419297,215.614935 34.4481515,215.528524 C34.3555816,215.443267 34.2353472,215.322531 34.0874662,215.16626 C33.9407935,215.008817 33.8133454,214.847201 33.7051398,214.681465 C33.5969342,214.515729 33.4935437,214.324511 33.3949684,214.10788 L33.245266,213.784684 L33.2362489,213.758047 L33.2272317,213.73141 L33.2218215,213.713651 L33.2182146,213.695893 L33.245266,213.699445 L33.2723174,213.704772 L33.4706943,213.73141 C33.6029576,213.749168 33.8103517,213.755081 34.0928765,213.749168 C34.3754193,213.743254 34.5707845,213.73141 34.6789901,213.713651 C34.7871957,213.695893 34.8533273,213.684049 34.877367,213.678135 L34.9134355,213.669256 L34.9585212,213.660377 L35.0036069,213.651498 L35.0072137,213.646171 L35.012624,213.642619 L35.0180523,213.639068 L35.0216411,213.63374 L34.9855726,213.624861 L34.9495041,213.615982 L34.9134355,213.607103 L34.877367,213.598224 L34.8412985,213.589345 C34.8172588,213.583432 34.7751849,213.571587 34.7150586,213.553829 C34.6549504,213.536071 34.492642,213.470952 34.2281335,213.358491 C33.9636429,213.246029 33.7532372,213.136515 33.5969342,213.029967 C33.4406492,212.923418 33.29156,212.806819 33.1496844,212.680133 C33.0090171,212.552275 32.8545356,212.387711 32.6862038,212.186459 C32.51789,211.985208 32.3676105,211.751387 32.2353472,211.485017 C32.1031019,211.218646 32.0039134,210.96412 31.9377818,210.721421 C31.8716682,210.478721 31.8283859,210.233074 31.8079531,209.984462 L31.7754734,209.611543 L31.7935077,209.615094 L31.8115419,209.620422 L31.8295762,209.629301 L31.8476105,209.63818 L31.8656447,209.647059 L31.883679,209.655938 L32.1632101,209.780244 C32.3495762,209.863121 32.5810099,209.934153 32.8575293,209.993341 C33.1340667,210.052528 33.2993688,210.085097 33.3534716,210.09101 L33.4346258,210.099889 L33.51578,210.099889 L33.5969342,210.099889 L33.5933454,210.094562 L33.587917,210.09101 L33.5825068,210.087458 L33.5788999,210.082131 L33.5753111,210.076804 L33.5698828,210.073252 L33.5644725,210.0697 L33.5608656,210.064373 L33.5428314,210.055494 L33.5247971,210.046615 L33.5212083,210.041287 L33.51578,210.037736 L33.5103697,210.034184 L33.5067628,210.028857 L33.4887286,210.019978 L33.4706943,210.011099 L33.4671055,210.005771 C33.4634986,210.003392 33.4117944,209.965514 33.3119928,209.89212 C33.2133995,209.817536 33.110009,209.721057 33.0018034,209.602664 C32.8935978,209.484271 32.7853922,209.359964 32.6771867,209.229745 C32.5689811,209.099525 32.4728043,208.960408 32.3886384,208.812431 C32.3044905,208.664453 32.2155095,208.4762 32.1217313,208.247725 C32.0291614,208.020422 31.9588278,207.791343 31.9107304,207.560488 C31.862651,207.329634 31.8355996,207.101745 31.8295762,206.876804 C31.8235708,206.651862 31.8295762,206.459489 31.8476105,206.299667 C31.8656447,206.139845 31.9017133,205.959299 31.9558161,205.758047 C32.0099188,205.556795 32.0880794,205.343698 32.1902615,205.118757 L32.3435528,204.781354 L32.3525699,204.754717 L32.361587,204.72808 L32.3670153,204.724528 L32.3706041,204.719201 L32.374211,204.713873 L32.3796213,204.710322 L32.3850496,204.713873 L32.3886384,204.719201 L32.3922453,204.724528 L32.3976555,204.72808 L32.4030839,204.731632 L32.4066727,204.736959 L32.4102795,204.742286 L32.4156898,204.745838 L32.4247069,204.763596 L32.4337241,204.781354 L32.4391524,204.784906 L32.4427412,204.790233 L32.6862038,205.056604 C32.8485122,205.234184 33.0408837,205.432488 33.2633003,205.651498 C33.4857349,205.870508 33.608963,205.98416 33.6330027,205.992453 C33.6570604,206.001918 33.6871055,206.029141 33.723174,206.07414 C33.7592426,206.117949 33.879477,206.222721 34.0838593,206.388457 C34.2882597,206.554193 34.5557619,206.746584 34.8863841,206.965594 C35.2170243,207.184604 35.5837151,207.400666 35.9864743,207.613762 C36.3892516,207.826859 36.8220739,208.019232 37.2849414,208.190899 C37.7478269,208.362566 38.0724436,208.475028 38.2587917,208.528302 C38.4451578,208.581576 38.7637511,208.649643 39.2146078,208.732519 C39.6654644,208.815396 40.0051217,208.86867 40.2335437,208.892342 C40.4619838,208.916013 40.6182867,208.929634 40.7024346,208.933185 L40.8286745,208.936737 L40.8250857,208.9101 L40.8196573,208.883463 L40.7835888,208.661487 C40.7595491,208.513509 40.7475203,208.306326 40.7475203,208.039956 C40.7475203,207.773585 40.7685663,207.527938 40.8106402,207.302997 C40.8527322,207.078055 40.9158521,206.850166 41,206.619312 C41.0841659,206.388457 41.1665284,206.20317 41.2470694,206.063485 C41.3288368,205.924972 41.4358341,205.766926 41.5680794,205.589345 C41.7003427,205.411765 41.8716682,205.228271 42.0820559,205.038846 C42.2924617,204.849421 42.5329125,204.680719 42.8034265,204.532741 C43.0739405,204.384764 43.3234265,204.272284 43.5518485,204.195339 C43.7802885,204.118393 43.9726601,204.068067 44.128945,204.044395 C44.285248,204.020724 44.3633904,204.007103 44.3633904,204.003552 L44.3633904,204.003552 Z" id="twitter"></path>
            <path d="M132.635832,227 L122.267692,227 C122.423507,226.866942 122.520355,226.677248 122.529079,226.440437 C122.575374,225.175144 122.542688,223.907156 122.542688,222.683879 C121.633566,222.726664 120.765652,222.842513 119.907531,222.792607 C118.014884,222.68266 116.560518,221.868061 115.806244,219.998634 C115.359442,218.891141 114.686185,217.943887 113.637668,217.311786 C113.441866,217.193627 113.270675,217.019662 113.12085,216.843002 C112.925048,216.612587 112.961677,216.375885 113.271056,216.312637 C113.583169,216.248618 113.924154,216.203908 114.231942,216.261961 C115.440777,216.490836 116.276704,217.255593 116.916574,218.272767 C118.181815,220.285113 120.129343,220.901114 122.320431,219.971821 C122.442593,219.91999 122.597886,219.794391 122.620907,219.679761 C122.797567,218.788956 123.127614,217.97673 123.79273,217.264638 C123.053274,217.126466 122.368316,217.024793 121.696586,216.867698 C119.762286,216.416234 118.024614,215.604008 116.753904,213.990847 C115.717151,212.674942 115.243067,211.134523 115.025135,209.495062 C114.683833,206.927206 114.989332,204.523501 116.73756,202.471449 C116.825891,202.367788 116.873776,202.155398 116.834476,202.026271 C116.39664,200.583163 116.463539,199.152178 116.897496,197.725171 C117.125222,196.975745 117.188624,196.938412 117.946776,197.042843 C117.993135,197.049129 118.038223,197.060868 118.0842,197.068758 C119.60394,197.322394 120.912042,198.064699 122.200622,198.861658 C122.373849,198.968847 122.637695,199.03556 122.828028,198.988861 C125.905726,198.235522 128.977574,198.238665 132.054891,198.991619 C132.233523,199.035175 132.472123,198.973145 132.642933,198.88289 C133.34347,198.51347 134.014056,198.084008 134.72356,197.733767 C135.548994,197.326692 136.418434,197.020455 137.354456,197.037326 C137.518271,197.040469 137.771688,197.19827 137.826505,197.344332 C138.389682,198.84947 138.50841,200.383281 138.059636,201.94968 C138.01175,202.11691 138.082974,202.355215 138.172131,202.520072 C138.615055,203.339802 139.233431,204.096284 139.513684,204.965793 C140.367989,207.616077 140.056639,210.240511 138.893718,212.731391 C137.828095,215.014628 135.851823,216.171578 133.512436,216.768335 C132.72236,216.969755 131.912888,217.092212 131.060554,217.261046 C132.177497,218.438009 132.352632,219.874382 132.332791,221.37875 C132.312187,222.930587 132.317656,224.482872 132.316829,226.035094 C132.316605,226.476266 132.428547,226.801578 132.635832,227 Z" id="github"></path>
        </g>
    </g>
</svg>