<?xml version="1.0" encoding="UTF-8"?>
<svg width="18px" height="18px" viewBox="0 0 18 18" version="1.1" xmlns="http://www.w3.org/2000/svg" xmlns:xlink="http://www.w3.org/1999/xlink">
    <!-- Generator: sketchtool 40.2 (33826) - http://www.bohemiancoding.com/sketch -->
    <title>67F04D96-ACAE-4311-A827-1B2E96AA1019</title>
    <desc>Created with sketchtool.</desc>
    <defs></defs>
    <g id="Public-Docs-Colour-Patterns" stroke="none" stroke-width="1" fill="none" fill-rule="evenodd">
        <g id="Postman-320" transform="translate(-286.000000, -26.000000)" fill="#808080">
            <g id="Header">
                <g id="Group" transform="translate(280.000000, 20.000000)">
                    <g id="ic_settings" transform="translate(6.000000, 6.000000)">
                        <g id="gear">
                            <g id="Global-Dash">
                                <g id="Icon-Sheet">
                                    <g id="ic-integrate-copy">
                                        <path d="M17.289,10.704 C17.121,11.238 16.962,11.766 16.782,12.285 C16.7152452,12.3476241 16.623553,12.3763469 16.533,12.363 C16.009,12.297 15.487,12.221 14.967,12.135 C14.8039959,12.0834579 14.6272233,12.1536654 14.544,12.303 C14.3591197,12.5925343 14.1588316,12.8719362 13.944,13.14 C13.802624,13.2813295 13.7824273,13.5034934 13.896,13.668 C14.181,14.181 14.433,14.7 14.7,15.252 L13.272,16.305 C12.834,15.879 12.393,15.465 11.97,15.036 C11.8631752,14.9053986 11.6804464,14.8656209 11.529,14.94 C11.169,15.072 10.797,15.177 10.437,15.312 C10.3469078,15.3531955 10.2798345,15.432364 10.254,15.528 C10.14,16.143 10.041,16.764 9.93,17.418 L8.277,17.418 C8.2083833,17.3931752 8.1566381,17.3358055 8.139,17.265 C8.031,16.707 7.931,16.147 7.839,15.585 C7.8345361,15.458669 7.7439281,15.3519253 7.62,15.327 C7.236,15.216 6.855,15.09 6.474,14.961 C6.3592295,14.9072517 6.2225612,14.9395551 6.144,15.039 C5.718,15.489 5.283,15.939 4.836,16.389 L3.363,15.336 C3.624,14.802 3.867,14.271 4.143,13.758 C4.2689282,13.5872101 4.2510748,13.3500155 4.101,13.2 C3.87,12.924 3.663,12.627 3.456,12.333 C3.40197019,12.2215256 3.27273349,12.1685386 3.156,12.21 C2.613,12.306 2.064,12.381 1.518,12.471 C1.44882606,12.4952364 1.37236899,12.4865339 1.31041116,12.4473719 C1.24845333,12.4082099 1.20778778,12.342882 1.2,12.27 C1.08,11.853 0.939,11.442 0.792,11.031 C0.75419247,10.9719773 0.7469215,10.8984234 0.77244113,10.8331406 C0.79796077,10.7678578 0.85318724,10.7187348 0.921,10.701 C1.41,10.461 1.881,10.191 2.367,9.945 C2.50296058,9.8962792 2.58490852,9.757598 2.562,9.615 C2.548,9.247 2.548,8.879 2.562,8.511 C2.58772982,8.3449228 2.49212906,8.183911 2.334,8.127 C1.791,7.869 1.263,7.584 0.708,7.296 C0.876,6.762 1.035,6.234 1.215,5.718 C1.28175485,5.6553759 1.37344701,5.6266531 1.464,5.64 C1.989,5.706 2.511,5.778 3.03,5.865 C3.19141761,5.9166706 3.36691624,5.8477247 3.45,5.7 C3.63851485,5.4027611 3.84489417,5.1172363 4.068,4.845 C4.202203,4.7055731 4.2149309,4.4891994 4.098,4.335 C3.822,3.816 3.567,3.3 3.3,2.748 L4.728,1.695 C5.169,2.124 5.607,2.535 6.033,2.964 C6.139203,3.09561243 6.3226989,3.13555713 6.474,3.06 C6.834,2.928 7.206,2.823 7.566,2.688 C7.656354,2.64715079 7.7235501,2.56783736 7.749,2.472 C7.863,1.857 7.962,1.236 8.073,0.582 L9.726,0.582 C9.7943145,0.60727245 9.8458856,0.66444904 9.864,0.735 C9.972,1.293 10.074,1.851 10.164,2.415 C10.1670929,2.54246691 10.2580072,2.65081686 10.383,2.676 C10.767,2.787 11.148,2.913 11.529,3.042 C11.642866,3.09530481 11.7784547,3.06296255 11.856,2.964 C12.282,2.514 12.717,2.064 13.161,1.614 L14.634,2.667 C14.373,3.204 14.124,3.732 13.857,4.248 C13.7238936,4.4119549 13.7355282,4.6498179 13.884,4.8 C14.127,5.1 14.484,5.229 14.565,5.7 C14.6245974,5.7679709 14.7116671,5.8054439 14.802,5.802 C15.357,5.727 15.912,5.64 16.464,5.547 C16.5324885,5.5161073 16.611492,5.5190706 16.6774738,5.5550071 C16.7434557,5.5909436 16.7888008,5.6557059 16.8,5.73 C16.92,6.156 17.064,6.576 17.214,6.99 C17.2503814,7.042346 17.2588797,7.1091697 17.2367589,7.1689558 C17.2146381,7.2287419 17.1646912,7.2739409 17.103,7.29 C16.611,7.539 16.128,7.809 15.636,8.058 C15.5012315,8.1078273 15.4207153,8.2462145 15.444,8.388 C15.444,8.757 15.459,9.126 15.444,9.492 C15.4182702,9.6580772 15.5138709,9.819089 15.672,9.876 C16.2,10.131 16.737,10.419 17.289,10.704 L17.289,10.704 L17.289,10.704 Z M11.805,9 C11.8074279,7.8649406 11.1255531,6.8402958 10.077591,6.4042439 C9.0296289,5.9681921 7.8221656,6.2066927 7.0186966,7.008443 C6.2152277,7.8101933 5.974142,9.0171431 6.4079488,10.0660366 C6.8417556,11.1149301 7.864938,11.7989974 9,11.799 C10.5434266,11.7908328 11.7935278,10.5434056 11.805,9 L11.805,9 L11.805,9 Z" id="gear"></path>
                                    </g>
                                </g>
                            </g>
                        </g>
                    </g>
                </g>
            </g>
        </g>
    </g>
</svg>
